# xmcd
#
# Track frame offsets: 
#        150
#        10901
#        24317
#        36612
#        54928
#        69879
#        88132
#        103205
#        116775
#        136451
#        151247
#        167725
#        181376
#        202296
#        222308
#        234530
#
# Disc length: 3376 seconds
#
# Revision: 1
# Processed by: cddbd v1.5.2PL0 Copyright (c) Steve Scherf et al.
# Submitted via: ExactAudioCopyFreeDBPlugin 1.0
#
DISCID=e50d2e10
DTITLE=FarmStrong - FarmStrong
DYEAR=2013
DGENRE=Bluegrass
TTITLE0=Blue Night
TTITLE1=God Gave You To Me
TTITLE2=Please Search Your Heart
TTITLE3=Cakewalk Into Town
TTITLE4=Stagger Lee
TTITLE5=The Old Crossroads
TTITLE6=Rambling Letters
TTITLE7=If I Be Lifted Up
TTITLE8=Lonesome Fugitive
TTITLE9=(Say) Won't You Be Mine
TTITLE10=Poor Man
TTITLE11=You're Still On My Mine
TTITLE12=Walls Of Time
TTITLE13=Hello In There
TTITLE14=Highway Of Regret
TTITLE15=Goodnight Irene
EXTD=
EXTT0=
EXTT1=
EXTT2=
EXTT3=
EXTT4=
EXTT5=
EXTT6=
EXTT7=
EXTT8=
EXTT9=
EXTT10=
EXTT11=
EXTT12=
EXTT13=
EXTT14=
EXTT15=
PLAYORDER=
